<svg width="18" height="18" viewBox="0 0 18 18" fill="none" xmlns="http://www.w3.org/2000/svg">
<rect width="18" height="18" fill="#E5E5E5"/>
<g id="Real-Estate Landing Page v2" clip-path="url(#clip0_0_1)">
<rect width="1440" height="4324" transform="translate(-382 -2370)" fill="white"/>
<g id="Feature 01">
<g id="Feature 01_2">
<rect id="bg" x="-382" y="-577" width="1440" height="727" fill="#F5FAFE"/>
<g id="cards">
<g id="card 01">
<g id="Rectangle 65" filter="url(#filter0_d_0_1)">
<rect x="-217" y="-317" width="350" height="357" rx="12" fill="white"/>
</g>
<g id="bed and both">
<g id="sqft">
<g id="Subtract">
<path d="M6.09503 0H2.28635C1.02363 0 0 1.02363 0 2.28635V6.57681H1.80741V2.28635C1.80741 2.02184 2.02184 1.80741 2.28635 1.80741H6.09503V0Z" fill="#0889FE"/>
<path d="M11.6997 1.80741V0H15.7137C16.9764 0 18 1.02363 18 2.28635V6.57681H16.1926V2.28635C16.1926 2.02184 15.9782 1.80741 15.7137 1.80741H11.6997Z" fill="#0889FE"/>
<path d="M11.6997 16.1926H15.7137C15.9782 16.1926 16.1926 15.9782 16.1926 15.7137V12.1815H18V15.7137C18 16.9764 16.9764 18 15.7137 18H11.6997V16.1926Z" fill="#0889FE"/>
<path d="M1.80741 12.1815V15.7137C1.80741 15.9782 2.02184 16.1926 2.28635 16.1926H6.09503V18H2.28635C1.02363 18 0 16.9764 0 15.7137V12.1815H1.80741Z" fill="#0889FE"/>
</g>
</g>
</g>
</g>
</g>
</g>
</g>
</g>
<defs>
<filter id="filter0_d_0_1" x="-251" y="-317" width="418" height="456" filterUnits="userSpaceOnUse" color-interpolation-filters="sRGB">
<feFlood flood-opacity="0" result="BackgroundImageFix"/>
<feColorMatrix in="SourceAlpha" type="matrix" values="0 0 0 0 0 0 0 0 0 0 0 0 0 0 0 0 0 0 127 0" result="hardAlpha"/>
<feMorphology radius="46" operator="erode" in="SourceAlpha" result="effect1_dropShadow_0_1"/>
<feOffset dy="65"/>
<feGaussianBlur stdDeviation="40"/>
<feColorMatrix type="matrix" values="0 0 0 0 0.885625 0 0 0 0 0.935278 0 0 0 0 0.975 0 0 0 0.6 0"/>
<feBlend mode="normal" in2="BackgroundImageFix" result="effect1_dropShadow_0_1"/>
<feBlend mode="normal" in="SourceGraphic" in2="effect1_dropShadow_0_1" result="shape"/>
</filter>
<clipPath id="clip0_0_1">
<rect width="1440" height="4324" fill="white" transform="translate(-382 -2370)"/>
</clipPath>
</defs>
</svg>
